<mxfile host="Electron" modified="2024-03-07T05:41:16.536Z" agent="Mozilla/5.0 (Windows NT 10.0; Win64; x64) AppleWebKit/537.36 (KHTML, like Gecko) draw.io/23.1.5 Chrome/120.0.6099.109 Electron/28.1.0 Safari/537.36" etag="Nd52xWdwKn9hSecbGW7S" version="23.1.5" type="device">
  <diagram name="Страница — 1" id="6nmN6V3qkkxSJXCIs2e8">
    <mxGraphModel dx="1863" dy="606" grid="1" gridSize="10" guides="1" tooltips="1" connect="1" arrows="1" fold="1" page="1" pageScale="1" pageWidth="827" pageHeight="1169" math="0" shadow="0">
      <root>
        <mxCell id="0" />
        <mxCell id="1" parent="0" />
        <mxCell id="6ucQf6QeyJl7MN_PAH76-3" value="" style="edgeStyle=orthogonalEdgeStyle;rounded=0;orthogonalLoop=1;jettySize=auto;html=1;" edge="1" parent="1" source="6ucQf6QeyJl7MN_PAH76-1" target="6ucQf6QeyJl7MN_PAH76-2">
          <mxGeometry relative="1" as="geometry" />
        </mxCell>
        <mxCell id="6ucQf6QeyJl7MN_PAH76-1" value="Начало" style="ellipse;whiteSpace=wrap;html=1;" vertex="1" parent="1">
          <mxGeometry x="370" y="130" width="110" height="50" as="geometry" />
        </mxCell>
        <mxCell id="6ucQf6QeyJl7MN_PAH76-5" value="" style="edgeStyle=orthogonalEdgeStyle;rounded=0;orthogonalLoop=1;jettySize=auto;html=1;" edge="1" parent="1" source="6ucQf6QeyJl7MN_PAH76-2" target="6ucQf6QeyJl7MN_PAH76-4">
          <mxGeometry relative="1" as="geometry" />
        </mxCell>
        <mxCell id="6ucQf6QeyJl7MN_PAH76-2" value="cout &amp;lt;&amp;lt; &quot;Введите количество чисел Фибоначчи для вывода: &quot;;" style="shape=parallelogram;perimeter=parallelogramPerimeter;whiteSpace=wrap;html=1;fixedSize=1;" vertex="1" parent="1">
          <mxGeometry x="297.5" y="255" width="255" height="60" as="geometry" />
        </mxCell>
        <mxCell id="6ucQf6QeyJl7MN_PAH76-7" value="" style="edgeStyle=orthogonalEdgeStyle;rounded=0;orthogonalLoop=1;jettySize=auto;html=1;" edge="1" parent="1" source="6ucQf6QeyJl7MN_PAH76-4" target="6ucQf6QeyJl7MN_PAH76-6">
          <mxGeometry relative="1" as="geometry" />
        </mxCell>
        <mxCell id="6ucQf6QeyJl7MN_PAH76-4" value="cin &amp;gt;&amp;gt; n;" style="shape=parallelogram;perimeter=parallelogramPerimeter;whiteSpace=wrap;html=1;fixedSize=1;" vertex="1" parent="1">
          <mxGeometry x="375" y="360" width="100" height="45" as="geometry" />
        </mxCell>
        <mxCell id="6ucQf6QeyJl7MN_PAH76-9" value="" style="edgeStyle=orthogonalEdgeStyle;rounded=0;orthogonalLoop=1;jettySize=auto;html=1;" edge="1" parent="1" source="6ucQf6QeyJl7MN_PAH76-6" target="6ucQf6QeyJl7MN_PAH76-8">
          <mxGeometry relative="1" as="geometry" />
        </mxCell>
        <mxCell id="6ucQf6QeyJl7MN_PAH76-6" value="&amp;nbsp; &amp;nbsp;cout &amp;lt;&amp;lt; &quot;Числа Фибоначчи: &quot;;" style="shape=parallelogram;perimeter=parallelogramPerimeter;whiteSpace=wrap;html=1;fixedSize=1;" vertex="1" parent="1">
          <mxGeometry x="317.5" y="440" width="215" height="45" as="geometry" />
        </mxCell>
        <mxCell id="6ucQf6QeyJl7MN_PAH76-28" value="" style="edgeStyle=orthogonalEdgeStyle;rounded=0;orthogonalLoop=1;jettySize=auto;html=1;" edge="1" parent="1" source="6ucQf6QeyJl7MN_PAH76-8" target="6ucQf6QeyJl7MN_PAH76-27">
          <mxGeometry relative="1" as="geometry" />
        </mxCell>
        <mxCell id="6ucQf6QeyJl7MN_PAH76-8" value="printFibonacci(n);" style="whiteSpace=wrap;html=1;" vertex="1" parent="1">
          <mxGeometry x="362.5" y="520" width="125" height="52.5" as="geometry" />
        </mxCell>
        <mxCell id="6ucQf6QeyJl7MN_PAH76-12" value="" style="edgeStyle=orthogonalEdgeStyle;rounded=0;orthogonalLoop=1;jettySize=auto;html=1;" edge="1" parent="1" source="6ucQf6QeyJl7MN_PAH76-10" target="6ucQf6QeyJl7MN_PAH76-11">
          <mxGeometry relative="1" as="geometry" />
        </mxCell>
        <mxCell id="6ucQf6QeyJl7MN_PAH76-10" value="int fibonacci(int n) {" style="shape=process;whiteSpace=wrap;html=1;backgroundOutline=1;" vertex="1" parent="1">
          <mxGeometry x="-160" y="110" width="140" height="60" as="geometry" />
        </mxCell>
        <mxCell id="6ucQf6QeyJl7MN_PAH76-13" style="edgeStyle=orthogonalEdgeStyle;rounded=0;orthogonalLoop=1;jettySize=auto;html=1;" edge="1" parent="1" source="6ucQf6QeyJl7MN_PAH76-11" target="6ucQf6QeyJl7MN_PAH76-14">
          <mxGeometry relative="1" as="geometry">
            <mxPoint x="-220" y="390" as="targetPoint" />
          </mxGeometry>
        </mxCell>
        <mxCell id="6ucQf6QeyJl7MN_PAH76-15" style="edgeStyle=orthogonalEdgeStyle;rounded=0;orthogonalLoop=1;jettySize=auto;html=1;" edge="1" parent="1" source="6ucQf6QeyJl7MN_PAH76-11" target="6ucQf6QeyJl7MN_PAH76-16">
          <mxGeometry relative="1" as="geometry">
            <mxPoint x="60" y="400" as="targetPoint" />
            <Array as="points">
              <mxPoint x="20" y="270" />
            </Array>
          </mxGeometry>
        </mxCell>
        <mxCell id="6ucQf6QeyJl7MN_PAH76-11" value="if (n &amp;lt;= 1) {" style="rhombus;whiteSpace=wrap;html=1;" vertex="1" parent="1">
          <mxGeometry x="-145" y="230" width="110" height="80" as="geometry" />
        </mxCell>
        <mxCell id="6ucQf6QeyJl7MN_PAH76-17" style="edgeStyle=orthogonalEdgeStyle;rounded=0;orthogonalLoop=1;jettySize=auto;html=1;" edge="1" parent="1" source="6ucQf6QeyJl7MN_PAH76-14">
          <mxGeometry relative="1" as="geometry">
            <mxPoint x="-90" y="480" as="targetPoint" />
            <Array as="points">
              <mxPoint x="-220" y="430" />
              <mxPoint x="-219" y="430" />
            </Array>
          </mxGeometry>
        </mxCell>
        <mxCell id="6ucQf6QeyJl7MN_PAH76-14" value="&amp;nbsp;return n;" style="rounded=0;whiteSpace=wrap;html=1;" vertex="1" parent="1">
          <mxGeometry x="-280" y="330" width="120" height="60" as="geometry" />
        </mxCell>
        <mxCell id="6ucQf6QeyJl7MN_PAH76-18" style="edgeStyle=orthogonalEdgeStyle;rounded=0;orthogonalLoop=1;jettySize=auto;html=1;" edge="1" parent="1" source="6ucQf6QeyJl7MN_PAH76-16">
          <mxGeometry relative="1" as="geometry">
            <mxPoint x="-90" y="480" as="targetPoint" />
            <Array as="points">
              <mxPoint x="10" y="435" />
              <mxPoint x="11" y="435" />
            </Array>
          </mxGeometry>
        </mxCell>
        <mxCell id="6ucQf6QeyJl7MN_PAH76-16" value="return fibonacci(n - 1) + fibonacci(n - 2);" style="rounded=0;whiteSpace=wrap;html=1;" vertex="1" parent="1">
          <mxGeometry x="-120" y="330" width="260" height="60" as="geometry" />
        </mxCell>
        <mxCell id="6ucQf6QeyJl7MN_PAH76-21" value="" style="edgeStyle=orthogonalEdgeStyle;rounded=0;orthogonalLoop=1;jettySize=auto;html=1;" edge="1" parent="1" source="6ucQf6QeyJl7MN_PAH76-19" target="6ucQf6QeyJl7MN_PAH76-20">
          <mxGeometry relative="1" as="geometry" />
        </mxCell>
        <mxCell id="6ucQf6QeyJl7MN_PAH76-19" value="void printFibonacci(int n) {" style="shape=process;whiteSpace=wrap;html=1;backgroundOutline=1;" vertex="1" parent="1">
          <mxGeometry x="-180" y="585" width="200" height="60" as="geometry" />
        </mxCell>
        <mxCell id="6ucQf6QeyJl7MN_PAH76-23" value="" style="edgeStyle=orthogonalEdgeStyle;rounded=0;orthogonalLoop=1;jettySize=auto;html=1;" edge="1" parent="1" source="6ucQf6QeyJl7MN_PAH76-20" target="6ucQf6QeyJl7MN_PAH76-22">
          <mxGeometry relative="1" as="geometry" />
        </mxCell>
        <mxCell id="6ucQf6QeyJl7MN_PAH76-25" style="edgeStyle=orthogonalEdgeStyle;rounded=0;orthogonalLoop=1;jettySize=auto;html=1;" edge="1" parent="1" source="6ucQf6QeyJl7MN_PAH76-20" target="6ucQf6QeyJl7MN_PAH76-26">
          <mxGeometry relative="1" as="geometry">
            <mxPoint x="80" y="830" as="targetPoint" />
          </mxGeometry>
        </mxCell>
        <mxCell id="6ucQf6QeyJl7MN_PAH76-20" value="for (int i = 0; i &amp;lt; n; ++i) {" style="shape=hexagon;perimeter=hexagonPerimeter2;whiteSpace=wrap;html=1;fixedSize=1;" vertex="1" parent="1">
          <mxGeometry x="-165" y="680" width="170" height="55" as="geometry" />
        </mxCell>
        <mxCell id="6ucQf6QeyJl7MN_PAH76-24" style="edgeStyle=orthogonalEdgeStyle;rounded=0;orthogonalLoop=1;jettySize=auto;html=1;entryX=0;entryY=0.5;entryDx=0;entryDy=0;" edge="1" parent="1" source="6ucQf6QeyJl7MN_PAH76-22" target="6ucQf6QeyJl7MN_PAH76-20">
          <mxGeometry relative="1" as="geometry">
            <Array as="points">
              <mxPoint x="-82" y="870" />
              <mxPoint x="-185" y="870" />
              <mxPoint x="-185" y="708" />
            </Array>
          </mxGeometry>
        </mxCell>
        <mxCell id="6ucQf6QeyJl7MN_PAH76-22" value="&amp;nbsp;cout &amp;lt;&amp;lt; fibonacci(i) &amp;lt;&amp;lt; &quot; &quot;;" style="shape=parallelogram;perimeter=parallelogramPerimeter;whiteSpace=wrap;html=1;fixedSize=1;" vertex="1" parent="1">
          <mxGeometry x="-175" y="770" width="185" height="50" as="geometry" />
        </mxCell>
        <mxCell id="6ucQf6QeyJl7MN_PAH76-26" value="cout &amp;lt;&amp;lt; endl;" style="shape=parallelogram;perimeter=parallelogramPerimeter;whiteSpace=wrap;html=1;fixedSize=1;" vertex="1" parent="1">
          <mxGeometry x="20" y="800" width="110" height="40" as="geometry" />
        </mxCell>
        <mxCell id="6ucQf6QeyJl7MN_PAH76-27" value="return 0;" style="ellipse;whiteSpace=wrap;html=1;" vertex="1" parent="1">
          <mxGeometry x="385" y="638.75" width="105" height="41.25" as="geometry" />
        </mxCell>
        <mxCell id="6ucQf6QeyJl7MN_PAH76-29" value="int main() {&#xa;    setlocale(LC_ALL, &quot;rus&quot;);&#xa;    int n;" style="text;whiteSpace=wrap;" vertex="1" parent="1">
          <mxGeometry x="532.5" y="160" width="180" height="70" as="geometry" />
        </mxCell>
        <mxCell id="6ucQf6QeyJl7MN_PAH76-30" value="" style="shape=partialRectangle;whiteSpace=wrap;html=1;bottom=1;right=1;left=1;top=0;fillColor=none;routingCenterX=-0.5;direction=south;" vertex="1" parent="1">
          <mxGeometry x="520" y="150" width="60" height="90" as="geometry" />
        </mxCell>
        <mxCell id="6ucQf6QeyJl7MN_PAH76-31" value="" style="shape=partialRectangle;whiteSpace=wrap;html=1;bottom=1;right=1;left=1;top=0;fillColor=none;routingCenterX=-0.5;direction=north;" vertex="1" parent="1">
          <mxGeometry x="640" y="150" width="60" height="90" as="geometry" />
        </mxCell>
      </root>
    </mxGraphModel>
  </diagram>
</mxfile>
